<svg width="36" height="37" viewBox="0 0 36 37" fill="none" xmlns="http://www.w3.org/2000/svg">
<ellipse cx="18" cy="18.3869" rx="18" ry="18.0705" fill="#E83647"/>
<path d="M15.4183 24.4103C15.1524 24.4103 14.9086 24.3177 14.7091 24.1094L10.2992 19.5035C9.90028 19.0869 9.90028 18.4389 10.2992 18.0223C10.6981 17.6056 11.3186 17.6056 11.7175 18.0223L15.4404 21.8875L24.2825 12.6757C24.6814 12.2591 25.3019 12.2591 25.7008 12.6757C26.0997 13.0924 26.0997 13.7404 25.7008 14.157L16.1496 24.1094C15.928 24.3177 15.6842 24.4103 15.4183 24.4103Z" fill="white"/>
<path d="M15.4183 24.4103C15.1524 24.4103 14.9086 24.3177 14.7091 24.1094L10.2992 19.5035C9.90028 19.0869 9.90028 18.4389 10.2992 18.0223C10.6981 17.6056 11.3186 17.6056 11.7175 18.0223L15.4404 21.8875L24.2825 12.6757C24.6814 12.2591 25.3019 12.2591 25.7008 12.6757C26.0997 13.0924 26.0997 13.7404 25.7008 14.157L16.1496 24.1094C15.928 24.3177 15.6842 24.4103 15.4183 24.4103Z" fill="white"/>
</svg>
