<svg width="35" height="35" viewBox="0 0 35 35" fill="none" xmlns="http://www.w3.org/2000/svg">
<circle cx="17.5" cy="17.5" r="17.5" fill="black" fill-opacity="0.1"/>
<path d="M12.4937 10.2563C12.152 9.91457 11.598 9.91457 11.2563 10.2563C10.9146 10.598 10.9146 11.152 11.2563 11.4937L16.7627 17.0001L11.2563 22.5064C10.9146 22.8482 10.9146 23.4021 11.2563 23.7439C11.598 24.0856 12.152 24.0856 12.4937 23.7439L18.0001 18.2375L23.5063 23.7437C23.848 24.0854 24.402 24.0854 24.7437 23.7437C25.0854 23.402 25.0854 22.848 24.7437 22.5063L19.2375 17.0001L24.7437 11.4939C25.0854 11.1521 25.0854 10.5981 24.7437 10.2564C24.402 9.9147 23.848 9.9147 23.5063 10.2564L18.0001 15.7627L12.4937 10.2563Z" fill="black"/>
</svg>
