<svg width="35" height="35" viewBox="0 0 35 35" fill="none" xmlns="http://www.w3.org/2000/svg">
<circle cx="17.5" cy="17.5" r="17.5" fill="#E83647" fill-opacity="0.1"/>
<path d="M23.958 15.1439L23.6429 24.8939C23.6161 25.7289 23.2721 26.5204 22.6839 27.1003C22.0957 27.6802 21.3096 28.0029 20.4925 28H14.5067C13.6901 28.003 12.9045 27.6807 12.3164 27.1015C11.7283 26.5222 11.3839 25.7316 11.3563 24.8971L11.0412 15.1439C11.0343 14.9304 11.1107 14.7227 11.2535 14.5667C11.3964 14.4107 11.5939 14.3191 11.8028 14.3121C12.0117 14.305 12.2148 14.3831 12.3674 14.5291C12.52 14.6752 12.6095 14.8772 12.6164 15.0908L12.9315 24.8431C12.9472 25.2595 13.12 25.6534 13.4138 25.9422C13.7075 26.2309 14.0992 26.3921 14.5067 26.3918H20.4925C20.9005 26.392 21.2927 26.2304 21.5865 25.941C21.8803 25.6515 22.0528 25.2568 22.0677 24.8399L22.3828 15.0908C22.3897 14.8772 22.4793 14.6752 22.6318 14.5291C22.7844 14.3831 22.9875 14.305 23.1964 14.3121C23.4053 14.3191 23.6029 14.4107 23.7457 14.5667C23.8885 14.7227 23.9649 14.9304 23.958 15.1439V15.1439ZM25 11.8993C25 12.1129 24.917 12.3178 24.7693 12.4688C24.6216 12.6198 24.4213 12.7047 24.2124 12.7047H10.7876C10.5787 12.7047 10.3784 12.6198 10.2307 12.4688C10.083 12.3178 10 12.1129 10 11.8993C10 11.6858 10.083 11.4809 10.2307 11.3299C10.3784 11.1789 10.5787 11.094 10.7876 11.094H13.2292C13.4787 11.0947 13.7196 11.0004 13.9049 10.8296C14.0903 10.6587 14.2068 10.4234 14.2318 10.1695C14.2899 9.57398 14.5628 9.0219 14.9973 8.62083C15.4318 8.21977 15.9967 7.99845 16.582 8.00001H18.4172C19.0025 7.99845 19.5674 8.21977 20.0019 8.62083C20.4364 9.0219 20.7093 9.57398 20.7674 10.1695C20.7924 10.4234 20.9089 10.6587 21.0943 10.8296C21.2796 11.0004 21.5205 11.0947 21.77 11.094H24.2116C24.4205 11.094 24.6208 11.1789 24.7685 11.3299C24.9162 11.4809 24.9992 11.6858 24.9992 11.8993H25ZM15.5991 11.094H19.4017C19.2982 10.8522 19.2305 10.596 19.2008 10.3338C19.1813 10.1353 19.0904 9.95127 18.9458 9.81737C18.8012 9.68347 18.6131 9.60922 18.418 9.60903H16.5828C16.3877 9.60922 16.1996 9.68347 16.055 9.81737C15.9103 9.95127 15.8195 10.1353 15.7999 10.3338C15.77 10.596 15.7021 10.8523 15.5983 11.094H15.5991ZM16.3922 23.2953V16.4381C16.3922 16.2245 16.3092 16.0197 16.1615 15.8686C16.0138 15.7176 15.8135 15.6328 15.6046 15.6328C15.3957 15.6328 15.1954 15.7176 15.0477 15.8686C14.9 16.0197 14.817 16.2245 14.817 16.4381V23.2986C14.817 23.5121 14.9 23.717 15.0477 23.868C15.1954 24.019 15.3957 24.1039 15.6046 24.1039C15.8135 24.1039 16.0138 24.019 16.1615 23.868C16.3092 23.717 16.3922 23.5121 16.3922 23.2986V23.2953ZM20.1838 23.2953V16.4381C20.1838 16.2245 20.1008 16.0197 19.9531 15.8686C19.8054 15.7176 19.6051 15.6328 19.3962 15.6328C19.1873 15.6328 18.9869 15.7176 18.8392 15.8686C18.6915 16.0197 18.6086 16.2245 18.6086 16.4381V23.2986C18.6086 23.5121 18.6915 23.717 18.8392 23.868C18.9869 24.019 19.1873 24.1039 19.3962 24.1039C19.6051 24.1039 19.8054 24.019 19.9531 23.868C20.1008 23.717 20.1838 23.5121 20.1838 23.2986V23.2953Z" fill="#E83647"/>
</svg>
