<svg width="14" height="14" viewBox="0 0 14 14" fill="none" xmlns="http://www.w3.org/2000/svg">
<g clip-path="url(#clip0_4011_9438)">
<path d="M12.9214 8.79458C12.7289 8.79458 12.5728 8.95066 12.5728 9.14325V12.2391C12.5721 12.8166 12.1042 13.2846 11.5268 13.2851H1.74336C1.16587 13.2846 0.698026 12.8166 0.697345 12.2391V3.15303C0.698026 2.57568 1.16587 2.10769 1.74336 2.10701H4.83919C5.03178 2.10701 5.18787 1.95093 5.18787 1.75834C5.18787 1.56589 5.03178 1.40967 4.83919 1.40967H1.74336C0.780972 1.41076 0.0010896 2.19064 0 3.15303V12.2392C0.0010896 13.2016 0.780972 13.9815 1.74336 13.9826H11.5268C12.4892 13.9815 13.269 13.2016 13.2701 12.2392V9.14325C13.2701 8.95066 13.114 8.79458 12.9214 8.79458Z" fill="#222222"/>
<path d="M13.1312 0.512796C12.5185 -0.0999685 11.525 -0.0999685 10.9122 0.512796L4.69171 6.73333C4.64908 6.77596 4.6183 6.82881 4.60223 6.88683L3.78421 9.84006C3.75057 9.96114 3.78475 10.0908 3.87356 10.1797C3.96249 10.2685 4.09216 10.3027 4.21324 10.2692L7.16647 9.45107C7.22449 9.435 7.27733 9.40422 7.31997 9.36159L13.5404 3.14092C14.1522 2.52774 14.1522 1.53511 13.5404 0.921942L13.1312 0.512796ZM5.45143 6.95997L10.5425 1.86881L12.1844 3.5107L7.09319 8.60186L5.45143 6.95997ZM5.12346 7.61809L6.43521 8.92997L4.62075 9.43268L5.12346 7.61809ZM13.0473 2.64787L12.6775 3.01765L11.0355 1.37562L11.4054 1.00584C11.7458 0.665477 12.2977 0.665477 12.638 1.00584L13.0473 1.41499C13.3871 1.75576 13.3871 2.30723 13.0473 2.64787Z" fill="#222222"/>
</g>
<defs>
<clipPath id="clip0_4011_9438">
<rect width="14" height="14" fill="white"/>
</clipPath>
</defs>
</svg>
