<svg width="24" height="20" viewBox="0 0 24 20" fill="none" xmlns="http://www.w3.org/2000/svg">
<g clip-path="url(#clip0_1433_16393)">
<path d="M3.9035 0.326589C3.79996 0.223048 3.67704 0.140914 3.54175 0.0848778C3.40647 0.0288416 3.26147 0 3.11504 0C2.96862 0 2.82362 0.0288416 2.68834 0.0848778C2.55305 0.140914 2.43013 0.223048 2.32659 0.326589C2.11748 0.535701 2 0.819317 2 1.11504C2 1.41077 2.11748 1.69439 2.32659 1.9035L8.57871 8.15562C8.18315 8.89146 8.03521 9.73517 8.15682 10.5617C8.27842 11.3882 8.6631 12.1536 9.25383 12.7443C9.84455 13.335 10.6099 13.7197 11.4364 13.8413C12.2629 13.9629 13.1066 13.8149 13.8425 13.4194L20.0946 19.6715C20.1978 19.7756 20.3207 19.8582 20.456 19.9146C20.5913 19.971 20.7365 20 20.8831 20C21.0297 20 21.1748 19.971 21.3101 19.9146C21.4455 19.8582 21.5683 19.7756 21.6715 19.6715C21.7756 19.5683 21.8582 19.4455 21.9146 19.3101C21.971 19.1748 22 19.0297 22 18.8831C22 18.7365 21.971 18.5913 21.9146 18.456C21.8582 18.3207 21.7756 18.1978 21.6715 18.0946L3.9035 0.326589ZM11.9991 11.6648C11.5573 11.6648 11.1336 11.4893 10.8212 11.1769C10.5088 10.8645 10.3333 10.4408 10.3333 9.99905V9.92132L12.0657 11.6537L11.9991 11.6648Z" fill="#666666"/>
<path d="M12.2302 15.715C7.50698 15.8292 4.40945 11.6134 3.44285 10.0024C4.13097 8.86072 4.95796 7.81621 5.90329 6.89481L4.29961 5.28387C3.05986 6.4989 1.99778 7.89615 1.14716 9.43118C1.05075 9.60487 1 9.80189 1 10.0024C1 10.203 1.05075 10.4 1.14716 10.5737C1.83916 11.819 5.54082 18 12.0105 18H12.2851C13.5016 17.9625 14.7024 17.7034 15.833 17.2345L14.0975 15.4294C13.4872 15.5964 12.8609 15.6922 12.2302 15.715ZM22.8299 9.43118C22.1269 8.163 18.2495 1.79922 11.6919 2.00487C10.4754 2.04241 9.27459 2.30149 8.14406 2.77036L9.87955 4.57552C10.4899 4.40852 11.1162 4.31272 11.7469 4.28989C16.4591 4.16422 19.5566 8.3915 20.5342 10.0024C19.8291 11.1476 18.9835 12.1922 18.0188 13.1101L19.6774 14.721C20.9327 13.5092 22.0097 12.1118 22.8738 10.5737C22.9636 10.396 23.0068 10.1969 22.9991 9.99631C22.9914 9.79574 22.933 9.60082 22.8299 9.43118Z" fill="#666666" stroke="#F8F8F8" stroke-width="0.7"/>
</g>
<defs>
<clipPath id="clip0_1433_16393">
<rect width="24" height="20" fill="white"/>
</clipPath>
</defs>
</svg>
