<svg width="23" height="23" viewBox="0 0 23 23" fill="none" xmlns="http://www.w3.org/2000/svg">
<g clip-path="url(#clip0_492_2)">
<path d="M23 11.5C23 5.14873 17.8513 0 11.5 0C5.14873 0 0 5.14873 0 11.5C0 17.8513 5.14873 23 11.5 23C17.8513 23 23 17.8513 23 11.5Z" fill="#E83647"/>
<path d="M6 14.837V16.6945C6 16.8656 6.13443 17 6.30551 17H8.16303C8.24247 17 8.3219 16.9694 8.37689 16.9083L15.0493 10.242L12.758 7.9507L6.09165 14.617C6.03055 14.6781 6 14.7514 6 14.837ZM16.8213 8.47007C17.0596 8.23177 17.0596 7.84683 16.8213 7.60853L15.3915 6.17873C15.1532 5.94042 14.7682 5.94042 14.5299 6.17873L13.4117 7.2969L15.7031 9.58825L16.8213 8.47007Z" fill="white"/>
</g>
<defs>
<clipPath id="clip0_492_2">
<rect width="23" height="23" fill="white"/>
</clipPath>
</defs>
</svg>
