<svg width="28" height="28" viewBox="0 0 28 28" fill="none" xmlns="http://www.w3.org/2000/svg">
<g clip-path="url(#clip0_311_1566)">
<path d="M8.58333 1H5.33333C4.18406 1 3.08186 1.45655 2.2692 2.2692C1.45655 3.08186 1 4.18406 1 5.33333L1 8.58333C1 9.73261 1.45655 10.8348 2.2692 11.6475C3.08186 12.4601 4.18406 12.9167 5.33333 12.9167H8.58333C9.73261 12.9167 10.8348 12.4601 11.6475 11.6475C12.4601 10.8348 12.9167 9.73261 12.9167 8.58333V5.33333C12.9167 4.18406 12.4601 3.08186 11.6475 2.2692C10.8348 1.45655 9.73261 1 8.58333 1V1ZM10.75 8.58333C10.75 9.15797 10.5217 9.70907 10.1154 10.1154C9.70907 10.5217 9.15797 10.75 8.58333 10.75H5.33333C4.7587 10.75 4.2076 10.5217 3.80127 10.1154C3.39494 9.70907 3.16667 9.15797 3.16667 8.58333V5.33333C3.16667 4.7587 3.39494 4.2076 3.80127 3.80127C4.2076 3.39494 4.7587 3.16667 5.33333 3.16667H8.58333C9.15797 3.16667 9.70907 3.39494 10.1154 3.80127C10.5217 4.2076 10.75 4.7587 10.75 5.33333V8.58333Z" fill="white"/>
<path d="M22.6665 1H19.4165C18.2672 1 17.165 1.45655 16.3523 2.2692C15.5397 3.08186 15.0831 4.18406 15.0831 5.33334V8.58334C15.0831 9.73261 15.5397 10.8348 16.3523 11.6475C17.165 12.4601 18.2672 12.9167 19.4165 12.9167H22.6665C23.8157 12.9167 24.9179 12.4601 25.7306 11.6475C26.5432 10.8348 26.9998 9.73261 26.9998 8.58334V5.33334C26.9998 4.18406 26.5432 3.08186 25.7306 2.2692C24.9179 1.45655 23.8157 1 22.6665 1V1ZM24.8331 8.58334C24.8331 9.15797 24.6048 9.70907 24.1985 10.1154C23.7922 10.5217 23.2411 10.75 22.6665 10.75H19.4165C18.8418 10.75 18.2907 10.5217 17.8844 10.1154C17.4781 9.70907 17.2498 9.15797 17.2498 8.58334V5.33334C17.2498 4.7587 17.4781 4.2076 17.8844 3.80127C18.2907 3.39494 18.8418 3.16667 19.4165 3.16667H22.6665C23.2411 3.16667 23.7922 3.39494 24.1985 3.80127C24.6048 4.2076 24.8331 4.7587 24.8331 5.33334V8.58334Z" fill="white"/>
<path d="M8.58333 15.083H5.33333C4.18406 15.083 3.08186 15.5396 2.2692 16.3522C1.45655 17.1649 1 18.2671 1 19.4163L1 22.6664C1 23.8156 1.45655 24.9178 2.2692 25.7305C3.08186 26.5431 4.18406 26.9997 5.33333 26.9997H8.58333C9.73261 26.9997 10.8348 26.5431 11.6475 25.7305C12.4601 24.9178 12.9167 23.8156 12.9167 22.6664V19.4163C12.9167 18.2671 12.4601 17.1649 11.6475 16.3522C10.8348 15.5396 9.73261 15.083 8.58333 15.083V15.083ZM10.75 22.6664C10.75 23.241 10.5217 23.7921 10.1154 24.1984C9.70907 24.6047 9.15797 24.833 8.58333 24.833H5.33333C4.7587 24.833 4.2076 24.6047 3.80127 24.1984C3.39494 23.7921 3.16667 23.241 3.16667 22.6664V19.4163C3.16667 18.8417 3.39494 18.2906 3.80127 17.8843C4.2076 17.478 4.7587 17.2497 5.33333 17.2497H8.58333C9.15797 17.2497 9.70907 17.478 10.1154 17.8843C10.5217 18.2906 10.75 18.8417 10.75 19.4163V22.6664Z" fill="white"/>
<path d="M22.6665 15.083H19.4165C18.2672 15.083 17.165 15.5396 16.3523 16.3522C15.5397 17.1649 15.0831 18.2671 15.0831 19.4163V22.6664C15.0831 23.8156 15.5397 24.9178 16.3523 25.7305C17.165 26.5431 18.2672 26.9997 19.4165 26.9997H22.6665C23.8157 26.9997 24.9179 26.5431 25.7306 25.7305C26.5432 24.9178 26.9998 23.8156 26.9998 22.6664V19.4163C26.9998 18.2671 26.5432 17.1649 25.7306 16.3522C24.9179 15.5396 23.8157 15.083 22.6665 15.083V15.083ZM24.8331 22.6664C24.8331 23.241 24.6048 23.7921 24.1985 24.1984C23.7922 24.6047 23.2411 24.833 22.6665 24.833H19.4165C18.8418 24.833 18.2907 24.6047 17.8844 24.1984C17.4781 23.7921 17.2498 23.241 17.2498 22.6664V19.4163C17.2498 18.8417 17.4781 18.2906 17.8844 17.8843C18.2907 17.478 18.8418 17.2497 19.4165 17.2497H22.6665C23.2411 17.2497 23.7922 17.478 24.1985 17.8843C24.6048 18.2906 24.8331 18.8417 24.8331 19.4163V22.6664Z" fill="white"/>
</g>
<defs>
<clipPath id="clip0_311_1566">
<rect width="26" height="26" fill="white" transform="translate(1 1)"/>
</clipPath>
</defs>
</svg>
