<svg width="28" height="28" viewBox="0 0 28 28" fill="none" xmlns="http://www.w3.org/2000/svg">
<g clip-path="url(#clip0_311_1518)">
<path fill-rule="evenodd" clip-rule="evenodd" d="M20.1391 24.9978C18.4556 26.1482 16.2984 26.5413 14.1191 26.5413C7.19723 26.5413 1.57739 20.9215 1.57739 13.9997C1.57739 7.07784 7.19723 1.45801 14.1191 1.45801C20.1356 1.45801 25.1674 5.70351 26.3819 11.3595C26.3842 11.3723 26.3866 11.3852 26.3889 11.3992C26.3889 11.3992 26.6899 13.1328 25.4369 14.5177C24.6867 15.3472 23.3427 16.1032 20.8729 16.1032C18.4847 16.1032 17.5397 17.257 17.6447 18.3245C17.6926 18.8063 17.9504 19.2648 18.4171 19.2648C20.0749 19.2648 21.2789 20.1597 21.6931 21.2727C22.1107 22.395 21.8109 23.8545 20.1391 24.9978ZM19.1509 23.5523C19.9372 23.0157 20.2499 22.4113 20.0527 21.884C19.8532 21.3473 19.2162 21.0148 18.4171 21.0148C17.3647 21.0148 16.5341 20.3673 16.1351 19.4188C15.6451 18.2545 15.8341 16.6177 17.1547 15.5C17.9306 14.8432 19.1276 14.3532 20.8729 14.3532C22.6206 14.3532 23.6087 13.9297 24.1396 13.344C24.7602 12.658 24.6786 11.8145 24.6634 11.6943C23.6064 6.84451 19.2839 3.20801 14.1191 3.20801C8.16206 3.20801 3.32739 8.04384 3.32739 13.9997C3.32739 19.9555 8.16206 24.7913 14.1191 24.7913C15.9367 24.7913 17.7474 24.5125 19.1509 23.5523Z" fill="white" stroke="white" stroke-width="0.5"/>
<path fill-rule="evenodd" clip-rule="evenodd" d="M11.6422 17.0234C13.1425 17.0234 14.3594 18.2414 14.3594 19.7406C14.3594 21.2398 13.1425 22.4578 11.6422 22.4578C10.143 22.4578 8.92505 21.2398 8.92505 19.7406C8.92505 18.2414 10.143 17.0234 11.6422 17.0234ZM11.6422 18.7734C11.109 18.7734 10.675 19.2074 10.675 19.7406C10.675 20.2749 11.109 20.7078 11.6422 20.7078C12.1765 20.7078 12.6094 20.2749 12.6094 19.7406C12.6094 19.2074 12.1765 18.7734 11.6422 18.7734Z" fill="white"/>
<path fill-rule="evenodd" clip-rule="evenodd" d="M7.95794 10.791C9.45828 10.791 10.6751 12.009 10.6751 13.5082C10.6751 15.0073 9.45828 16.2253 7.95794 16.2253C6.45878 16.2253 5.24194 15.0073 5.24194 13.5082C5.24194 12.009 6.45878 10.791 7.95794 10.791ZM7.95794 12.541C7.42478 12.541 6.99194 12.9738 6.99194 13.5082C6.99194 14.0413 7.42478 14.4753 7.95794 14.4753C8.49228 14.4753 8.92511 14.0413 8.92511 13.5082C8.92511 12.9738 8.49228 12.541 7.95794 12.541Z" fill="white"/>
<path fill-rule="evenodd" clip-rule="evenodd" d="M12.4099 4.95801C13.9102 4.95801 15.1271 6.17601 15.1271 7.67517C15.1271 9.17434 13.9102 10.3923 12.4099 10.3923C10.9107 10.3923 9.69275 9.17434 9.69275 7.67517C9.69275 6.17601 10.9107 4.95801 12.4099 4.95801ZM12.4099 6.70801C11.8767 6.70801 11.4427 7.14084 11.4427 7.67517C11.4427 8.20834 11.8767 8.64234 12.4099 8.64234C12.9442 8.64234 13.3771 8.20834 13.3771 7.67517C13.3771 7.14084 12.9442 6.70801 12.4099 6.70801Z" fill="white"/>
<path fill-rule="evenodd" clip-rule="evenodd" d="M19.2256 7.29102C20.7259 7.29102 21.9428 8.50902 21.9428 10.0082C21.9428 11.5073 20.7259 12.7253 19.2256 12.7253C17.7264 12.7253 16.5084 11.5073 16.5084 10.0082C16.5084 8.50902 17.7264 7.29102 19.2256 7.29102ZM19.2256 9.04102C18.6924 9.04102 18.2584 9.47385 18.2584 10.0082C18.2584 10.5413 18.6924 10.9753 19.2256 10.9753C19.7599 10.9753 20.1928 10.5413 20.1928 10.0082C20.1928 9.47385 19.7599 9.04102 19.2256 9.04102Z" fill="white"/>
</g>
<defs>
<clipPath id="clip0_311_1518">
<rect width="28" height="28" fill="white"/>
</clipPath>
</defs>
</svg>
