<svg width="28" height="28" viewBox="0 0 28 28" fill="none" xmlns="http://www.w3.org/2000/svg">
<g clip-path="url(#clip0_311_1570)">
<path d="M21.5833 1H6.41667C4.98061 1.00172 3.60385 1.57296 2.5884 2.5884C1.57296 3.60385 1.00172 4.98061 1 6.41667L1 21.5833C1.00172 23.0194 1.57296 24.3961 2.5884 25.4116C3.60385 26.427 4.98061 26.9983 6.41667 27H21.5833C23.0194 26.9983 24.3961 26.427 25.4116 25.4116C26.427 24.3961 26.9983 23.0194 27 21.5833V6.41667C26.9983 4.98061 26.427 3.60385 25.4116 2.5884C24.3961 1.57296 23.0194 1.00172 21.5833 1V1ZM8.58333 24.8333V23.75C8.58333 22.3134 9.15402 20.9357 10.1698 19.9198C11.1857 18.904 12.5634 18.3333 14 18.3333C15.4366 18.3333 16.8143 18.904 17.8302 19.9198C18.846 20.9357 19.4167 22.3134 19.4167 23.75V24.8333H8.58333ZM24.8333 21.5833C24.8333 22.4453 24.4909 23.2719 23.8814 23.8814C23.2719 24.4909 22.4453 24.8333 21.5833 24.8333V23.75C21.5833 21.7388 20.7844 19.8099 19.3622 18.3878C17.9401 16.9656 16.0112 16.1667 14 16.1667C11.9888 16.1667 10.0599 16.9656 8.63777 18.3878C7.21562 19.8099 6.41667 21.7388 6.41667 23.75V24.8333C5.55471 24.8333 4.72806 24.4909 4.11857 23.8814C3.50908 23.2719 3.16667 22.4453 3.16667 21.5833V6.41667C3.16667 5.55471 3.50908 4.72806 4.11857 4.11857C4.72806 3.50908 5.55471 3.16667 6.41667 3.16667H21.5833C22.4453 3.16667 23.2719 3.50908 23.8814 4.11857C24.4909 4.72806 24.8333 5.55471 24.8333 6.41667V21.5833Z" fill="white"/>
<path d="M14.0001 5.33398C13.143 5.33398 12.3052 5.58813 11.5926 6.06428C10.88 6.54044 10.3246 7.21721 9.99661 8.00902C9.66863 8.80084 9.58281 9.67212 9.75001 10.5127C9.91722 11.3533 10.3299 12.1254 10.936 12.7314C11.542 13.3375 12.3141 13.7502 13.1547 13.9174C13.9953 14.0846 14.8666 13.9988 15.6584 13.6708C16.4502 13.3428 17.127 12.7874 17.6031 12.0748C18.0793 11.3622 18.3334 10.5244 18.3334 9.66732C18.3334 8.51805 17.8769 7.41585 17.0642 6.60319C16.2516 5.79053 15.1494 5.33398 14.0001 5.33398ZM14.0001 11.834C13.5716 11.834 13.1527 11.7069 12.7963 11.4688C12.44 11.2308 12.1623 10.8924 11.9983 10.4965C11.8344 10.1006 11.7914 9.66491 11.875 9.24462C11.9587 8.82433 12.165 8.43827 12.468 8.13525C12.771 7.83224 13.1571 7.62588 13.5774 7.54228C13.9977 7.45868 14.4333 7.50159 14.8292 7.66558C15.2251 7.82957 15.5635 8.10728 15.8016 8.46358C16.0397 8.81989 16.1668 9.23879 16.1668 9.66732C16.1668 10.242 15.9385 10.7931 15.5321 11.1994C15.1258 11.6057 14.5747 11.834 14.0001 11.834Z" fill="white"/>
</g>
<defs>
<clipPath id="clip0_311_1570">
<rect width="26" height="26" fill="white" transform="translate(1 1)"/>
</clipPath>
</defs>
</svg>
