<svg width="28" height="28" viewBox="0 0 28 28" fill="none" xmlns="http://www.w3.org/2000/svg">
<g clip-path="url(#clip0_311_1461)">
<path d="M25.9167 24.8333H4.25C3.96268 24.8333 3.68713 24.7192 3.48397 24.516C3.2808 24.3129 3.16667 24.0373 3.16667 23.75V2.08333C3.16667 1.79602 3.05253 1.52047 2.84937 1.3173C2.6462 1.11414 2.37065 1 2.08333 1C1.79602 1 1.52047 1.11414 1.3173 1.3173C1.11414 1.52047 1 1.79602 1 2.08333L1 23.75C1 24.612 1.34241 25.4386 1.9519 26.0481C2.5614 26.6576 3.38805 27 4.25 27H25.9167C26.204 27 26.4795 26.8859 26.6827 26.6827C26.8859 26.4795 27 26.204 27 25.9167C27 25.6293 26.8859 25.3538 26.6827 25.1506C26.4795 24.9475 26.204 24.8333 25.9167 24.8333Z" fill="white"/>
<path d="M17.2502 22.667C17.5375 22.667 17.8131 22.5529 18.0162 22.3497C18.2194 22.1465 18.3336 21.871 18.3336 21.5837V14.0003C18.3336 13.713 18.2194 13.4375 18.0162 13.2343C17.8131 13.0311 17.5375 12.917 17.2502 12.917C16.9629 12.917 16.6873 13.0311 16.4842 13.2343C16.281 13.4375 16.1669 13.713 16.1669 14.0003V21.5837C16.1669 21.871 16.281 22.1465 16.4842 22.3497C16.6873 22.5529 16.9629 22.667 17.2502 22.667Z" fill="white"/>
<path d="M8.58333 22.667C8.87065 22.667 9.1462 22.5529 9.34936 22.3497C9.55253 22.1465 9.66666 21.871 9.66666 21.5837V14.0003C9.66666 13.713 9.55253 13.4375 9.34936 13.2343C9.1462 13.0311 8.87065 12.917 8.58333 12.917C8.29601 12.917 8.02046 13.0311 7.8173 13.2343C7.61414 13.4375 7.5 13.713 7.5 14.0003V21.5837C7.5 21.871 7.61414 22.1465 7.8173 22.3497C8.02046 22.5529 8.29601 22.667 8.58333 22.667Z" fill="white"/>
<path d="M21.5833 22.6667C21.8707 22.6667 22.1462 22.5525 22.3494 22.3494C22.5525 22.1462 22.6667 21.8707 22.6667 21.5833V8.58333C22.6667 8.29602 22.5525 8.02047 22.3494 7.8173C22.1462 7.61414 21.8707 7.5 21.5833 7.5C21.296 7.5 21.0205 7.61414 20.8173 7.8173C20.6141 8.02047 20.5 8.29602 20.5 8.58333V21.5833C20.5 21.8707 20.6141 22.1462 20.8173 22.3494C21.0205 22.5525 21.296 22.6667 21.5833 22.6667Z" fill="white"/>
<path d="M12.9165 22.6667C13.2038 22.6667 13.4793 22.5525 13.6825 22.3494C13.8857 22.1462 13.9998 21.8707 13.9998 21.5833V8.58333C13.9998 8.29602 13.8857 8.02047 13.6825 7.8173C13.4793 7.61414 13.2038 7.5 12.9165 7.5C12.6292 7.5 12.3536 7.61414 12.1504 7.8173C11.9473 8.02047 11.8331 8.29602 11.8331 8.58333V21.5833C11.8331 21.8707 11.9473 22.1462 12.1504 22.3494C12.3536 22.5525 12.6292 22.6667 12.9165 22.6667Z" fill="white"/>
</g>
<defs>
<clipPath id="clip0_311_1461">
<rect width="26" height="26" fill="white" transform="translate(1 1)"/>
</clipPath>
</defs>
</svg>
