<svg width="28" height="28" viewBox="0 0 28 28" fill="none" xmlns="http://www.w3.org/2000/svg">
<path d="M25.9844 14C25.9844 20.731 20.731 25.9844 14 25.9844C7.269 25.9844 2.01562 20.731 2.01562 14C2.01562 7.26905 7.269 2.01563 14 2.01563C20.731 2.01563 25.9844 7.26905 25.9844 14Z" stroke="white" stroke-width="2.4" stroke-miterlimit="10"/>
<path d="M14 4.85938V23.1406" stroke="white" stroke-width="2.4" stroke-miterlimit="10"/>
<path d="M12.9844 14H15.0156C16.6984 14 18.0625 15.3641 18.0625 17.0469C18.0625 18.7296 16.6984 20.0938 15.0156 20.0938H12.9844C11.3016 20.0938 9.9375 18.7296 9.9375 17.0469" stroke="white" stroke-width="2.4" stroke-miterlimit="10"/>
<path d="M15.0156 14H12.9844C11.3016 14 9.9375 12.6359 9.9375 10.9531C9.9375 9.27039 11.3016 7.90625 12.9844 7.90625H15.0156C16.6984 7.90625 18.0625 9.27039 18.0625 10.9531" stroke="white" stroke-width="2.4" stroke-miterlimit="10"/>
</svg>
