<svg width="28" height="28" viewBox="0 0 28 28" fill="none" xmlns="http://www.w3.org/2000/svg">
<g clip-path="url(#clip0_485_39)">
<path d="M14.3207 2C8.07375 2 3 6.62092 3 12.2916C3.0114 13.7939 3.36707 15.2737 4.03967 16.6171C4.71228 17.9605 5.68392 19.1319 6.87993 20.0412C6.87099 20.2689 6.84692 20.4958 6.80789 20.7204C6.72786 21.3072 6.49581 21.8628 6.13475 22.3322C5.77368 22.8015 5.29617 23.1684 4.74957 23.3962C4.55081 23.4564 4.3749 23.5753 4.24497 23.7373C4.11504 23.8993 4.03717 24.0969 4.02158 24.304C4.00599 24.5111 4.05342 24.718 4.15764 24.8977C4.26185 25.0773 4.41797 25.2212 4.60549 25.3105C5.57085 25.7662 6.62543 26.0017 7.69297 26C8.25041 25.9993 8.80608 25.9372 9.34991 25.8147C11.4357 25.3002 13.3206 24.175 14.7633 22.5832C20.8045 22.3671 25.6415 17.8285 25.6415 12.2916C25.6415 6.75471 20.5677 2 14.3207 2ZM14.3207 20.5249C14.1548 20.5251 13.9914 20.5655 13.8445 20.6426C13.6975 20.7196 13.5714 20.8311 13.4768 20.9674C12.2981 22.3316 10.7394 23.3133 9 23.7873C8.52096 23.8965 8.02951 23.9415 7.53859 23.9211C8.23207 23.104 8.69405 22.1161 8.8765 21.06C8.96421 20.5366 8.99869 20.0055 8.97941 19.4751C8.97545 19.3153 8.93432 19.1587 8.85929 19.0176C8.78426 18.8764 8.6774 18.7547 8.54717 18.6621C7.49565 17.9596 6.62934 17.0136 6.02192 15.9045C5.41449 14.7953 5.08392 13.5559 5.05832 12.2916C5.05832 7.753 9.17495 4.05832 14.3207 4.05832C19.4665 4.05832 23.5832 7.753 23.5832 12.2916C23.5832 16.8302 19.4665 20.5249 14.3207 20.5249ZM19.4665 10.2333C19.4665 10.5062 19.3581 10.768 19.1651 10.961C18.9721 11.154 18.7103 11.2624 18.4374 11.2624H10.2041C9.93116 11.2624 9.66939 11.154 9.47639 10.961C9.28338 10.768 9.17495 10.5062 9.17495 10.2333C9.17495 9.96032 9.28338 9.69855 9.47639 9.50555C9.66939 9.31254 9.93116 9.20411 10.2041 9.20411H18.4374C18.7103 9.20411 18.9721 9.31254 19.1651 9.50555C19.3581 9.69855 19.4665 9.96032 19.4665 10.2333ZM19.4665 14.3499C19.4665 14.6229 19.3581 14.8846 19.1651 15.0776C18.9721 15.2706 18.7103 15.3791 18.4374 15.3791H10.2041C9.93116 15.3791 9.66939 15.2706 9.47639 15.0776C9.28338 14.8846 9.17495 14.6229 9.17495 14.3499C9.17495 14.077 9.28338 13.8152 9.47639 13.6222C9.66939 13.4292 9.93116 13.3207 10.2041 13.3207H18.4374C18.7103 13.3207 18.9721 13.4292 19.1651 13.6222C19.3581 13.8152 19.4665 14.077 19.4665 14.3499Z" fill="white"/>
</g>
<defs>
<clipPath id="clip0_485_39">
<rect width="28" height="28" fill="white"/>
</clipPath>
</defs>
</svg>
