<svg width="28" height="28" viewBox="0 0 28 28" fill="none" xmlns="http://www.w3.org/2000/svg">
<mask id="mask0_311_1542" style="mask-type:luminance" maskUnits="userSpaceOnUse" x="1" y="1" width="26" height="26">
<path d="M1 1.00033H26.6667V26.667H1V1.00033Z" fill="white"/>
</mask>
<g mask="url(#mask0_311_1542)">
<path d="M9.29346 25.915H23.637C24.8828 25.915 25.8928 24.9051 25.8928 23.6592V11.5277C25.8928 10.2818 24.8828 9.27181 23.637 9.27181H16.813" stroke="white" stroke-width="1.4" stroke-miterlimit="10"/>
<path d="M15.3094 22.9072H23.637C24.8829 22.9072 25.8928 21.8973 25.8928 20.6514" stroke="white" stroke-width="1.4" stroke-miterlimit="10"/>
<path d="M13.8052 18.3955C13.8052 15.9037 11.7852 13.8838 9.29346 13.8838C6.80173 13.8838 4.78174 15.9037 4.78174 18.3955C4.78174 20.8873 6.80173 22.9072 9.29346 22.9072C11.7852 22.9072 13.8052 20.8873 13.8052 18.3955Z" stroke="white" stroke-width="1.4" stroke-miterlimit="10"/>
<path d="M16.813 18.3955V9.27181C16.813 5.11887 13.4464 1.75228 9.29346 1.75228C5.14057 1.75228 1.77393 5.11887 1.77393 9.27181V18.3955" stroke="white" stroke-width="1.4" stroke-miterlimit="10"/>
<path d="M16.813 18.3955C16.813 14.2426 13.4464 10.876 9.29346 10.876C5.14057 10.876 1.77393 14.2426 1.77393 18.3955C1.77393 22.5484 5.14057 25.915 9.29346 25.915C13.4464 25.915 16.813 22.5484 16.813 18.3955Z" stroke="white" stroke-width="1.4" stroke-miterlimit="10"/>
<path d="M10.7974 18.3955C10.7974 17.565 10.1241 16.8916 9.29346 16.8916C8.4629 16.8916 7.78955 17.565 7.78955 18.3955C7.78955 19.2261 8.4629 19.8994 9.29346 19.8994C10.1241 19.8994 10.7974 19.2261 10.7974 18.3955Z" stroke="white" stroke-width="1.4" stroke-miterlimit="10"/>
</g>
</svg>
