<svg width="28" height="28" viewBox="0 0 28 28" fill="none" xmlns="http://www.w3.org/2000/svg">
<g clip-path="url(#clip0_311_1463)">
<path d="M23.75 7.5H20.5C20.5 5.77609 19.8152 4.12279 18.5962 2.90381C17.3772 1.68482 15.7239 1 14 1C12.2761 1 10.6228 1.68482 9.40381 2.90381C8.18482 4.12279 7.5 5.77609 7.5 7.5H4.25C3.38805 7.5 2.5614 7.84241 1.9519 8.4519C1.34241 9.0614 1 9.88805 1 10.75L1 21.5833C1.00172 23.0194 1.57296 24.3961 2.5884 25.4116C3.60385 26.427 4.98061 26.9983 6.41667 27H21.5833C23.0194 26.9983 24.3961 26.427 25.4116 25.4116C26.427 24.3961 26.9983 23.0194 27 21.5833V10.75C27 9.88805 26.6576 9.0614 26.0481 8.4519C25.4386 7.84241 24.612 7.5 23.75 7.5ZM14 3.16667C15.1493 3.16667 16.2515 3.62321 17.0641 4.43587C17.8768 5.24853 18.3333 6.35073 18.3333 7.5H9.66667C9.66667 6.35073 10.1232 5.24853 10.9359 4.43587C11.7485 3.62321 12.8507 3.16667 14 3.16667V3.16667ZM24.8333 21.5833C24.8333 22.4453 24.4909 23.2719 23.8814 23.8814C23.2719 24.4909 22.4453 24.8333 21.5833 24.8333H6.41667C5.55471 24.8333 4.72806 24.4909 4.11857 23.8814C3.50908 23.2719 3.16667 22.4453 3.16667 21.5833V10.75C3.16667 10.4627 3.2808 10.1871 3.48397 9.98397C3.68713 9.7808 3.96268 9.66667 4.25 9.66667H7.5V11.8333C7.5 12.1207 7.61414 12.3962 7.8173 12.5994C8.02047 12.8025 8.29602 12.9167 8.58333 12.9167C8.87065 12.9167 9.1462 12.8025 9.34937 12.5994C9.55253 12.3962 9.66667 12.1207 9.66667 11.8333V9.66667H18.3333V11.8333C18.3333 12.1207 18.4475 12.3962 18.6506 12.5994C18.8538 12.8025 19.1293 12.9167 19.4167 12.9167C19.704 12.9167 19.9795 12.8025 20.1827 12.5994C20.3859 12.3962 20.5 12.1207 20.5 11.8333V9.66667H23.75C24.0373 9.66667 24.3129 9.7808 24.516 9.98397C24.7192 10.1871 24.8333 10.4627 24.8333 10.75V21.5833Z" fill="white"/>
</g>
<defs>
<clipPath id="clip0_311_1463">
<rect width="26" height="26" fill="white" transform="translate(1 1)"/>
</clipPath>
</defs>
</svg>
