<svg width="28" height="28" viewBox="0 0 28 28" fill="none" xmlns="http://www.w3.org/2000/svg">
<g clip-path="url(#clip0_311_1466)">
<path d="M21.5833 1H6.41667C4.98061 1.00172 3.60385 1.57296 2.5884 2.5884C1.57296 3.60385 1.00172 4.98061 1 6.41667L1 21.5833C1.00172 23.0194 1.57296 24.3961 2.5884 25.4116C3.60385 26.427 4.98061 26.9983 6.41667 27H21.5833C23.0194 26.9983 24.3961 26.427 25.4116 25.4116C26.427 24.3961 26.9983 23.0194 27 21.5833V6.41667C26.9983 4.98061 26.427 3.60385 25.4116 2.5884C24.3961 1.57296 23.0194 1.00172 21.5833 1V1ZM24.8333 6.41667H17.25V3.16667H21.5833C22.4453 3.16667 23.2719 3.50908 23.8814 4.11857C24.4909 4.72806 24.8333 5.55471 24.8333 6.41667ZM12.9167 3.16667H15.0833V8.58333C15.0833 8.87065 14.9692 9.1462 14.766 9.34937C14.5629 9.55253 14.2873 9.66667 14 9.66667C13.7127 9.66667 13.4371 9.55253 13.234 9.34937C13.0308 9.1462 12.9167 8.87065 12.9167 8.58333V3.16667ZM6.41667 3.16667H10.75V6.41667H3.16667C3.16667 5.55471 3.50908 4.72806 4.11857 4.11857C4.72806 3.50908 5.55471 3.16667 6.41667 3.16667V3.16667ZM21.5833 24.8333H6.41667C5.55471 24.8333 4.72806 24.4909 4.11857 23.8814C3.50908 23.2719 3.16667 22.4453 3.16667 21.5833V8.58333H10.75C10.75 9.44529 11.0924 10.2719 11.7019 10.8814C12.3114 11.4909 13.138 11.8333 14 11.8333C14.862 11.8333 15.6886 11.4909 16.2981 10.8814C16.9076 10.2719 17.25 9.44529 17.25 8.58333H24.8333V21.5833C24.8333 22.4453 24.4909 23.2719 23.8814 23.8814C23.2719 24.4909 22.4453 24.8333 21.5833 24.8333ZM22.6667 21.5833C22.6667 21.8707 22.5525 22.1462 22.3494 22.3494C22.1462 22.5525 21.8707 22.6667 21.5833 22.6667H18.3333C18.046 22.6667 17.7705 22.5525 17.5673 22.3494C17.3641 22.1462 17.25 21.8707 17.25 21.5833C17.25 21.296 17.3641 21.0205 17.5673 20.8173C17.7705 20.6141 18.046 20.5 18.3333 20.5H21.5833C21.8707 20.5 22.1462 20.6141 22.3494 20.8173C22.5525 21.0205 22.6667 21.296 22.6667 21.5833Z" fill="white"/>
</g>
<defs>
<clipPath id="clip0_311_1466">
<rect width="26" height="26" fill="white" transform="translate(1 1)"/>
</clipPath>
</defs>
</svg>
