<svg width="26" height="20" viewBox="0 0 26 20" fill="none" xmlns="http://www.w3.org/2000/svg">
<path d="M7.30355 8.51754H2.76086C2.23395 8.51694 1.72879 8.30735 1.3562 7.93477C0.983621 7.56219 0.774039 7.05702 0.773438 6.53011V1.98743C0.774039 1.46051 0.983621 0.955352 1.3562 0.582767C1.72879 0.210183 2.23395 0.000601157 2.76086 0H7.30355C7.83046 0.000601157 8.33562 0.210183 8.70821 0.582767C9.08079 0.955352 9.29037 1.46051 9.29097 1.98743V6.53011C9.29037 7.05702 9.08079 7.56219 8.70821 7.93477C8.33562 8.30735 7.83046 8.51694 7.30355 8.51754ZM2.76086 1.70351C2.68556 1.70351 2.61335 1.73342 2.5601 1.78666C2.50686 1.83991 2.47694 1.91213 2.47694 1.98743V6.53011C2.47694 6.60541 2.50686 6.67763 2.5601 6.73087C2.61335 6.78412 2.68556 6.81403 2.76086 6.81403H7.30355C7.37885 6.81403 7.45106 6.78412 7.50431 6.73087C7.55755 6.67763 7.58747 6.60541 7.58747 6.53011V1.98743C7.58747 1.91213 7.55755 1.83991 7.50431 1.78666C7.45106 1.73342 7.37885 1.70351 7.30355 1.70351H2.76086Z" fill="white"/>
<path d="M7.30355 19.873H2.76086C2.23395 19.8724 1.72879 19.6628 1.3562 19.2902C0.983621 18.9177 0.774039 18.4125 0.773438 17.8856V13.3429C0.774039 12.816 0.983621 12.3108 1.3562 11.9382C1.72879 11.5657 2.23395 11.3561 2.76086 11.3555H7.30355C7.83046 11.3561 8.33562 11.5657 8.70821 11.9382C9.08079 12.3108 9.29037 12.816 9.29097 13.3429V17.8856C9.29037 18.4125 9.08079 18.9177 8.70821 19.2902C8.33562 19.6628 7.83046 19.8724 7.30355 19.873ZM2.76086 13.059C2.68556 13.059 2.61335 13.0889 2.5601 13.1421C2.50686 13.1954 2.47694 13.2676 2.47694 13.3429V17.8856C2.47694 17.9609 2.50686 18.0331 2.5601 18.0863C2.61335 18.1396 2.68556 18.1695 2.76086 18.1695H7.30355C7.37885 18.1695 7.45106 18.1396 7.50431 18.0863C7.55755 18.0331 7.58747 17.9609 7.58747 17.8856V13.3429C7.58747 13.2676 7.55755 13.1954 7.50431 13.1421C7.45106 13.0889 7.37885 13.059 7.30355 13.059H2.76086Z" fill="white"/>
<path d="M24.3413 2.84023H12.9846C12.7587 2.84023 12.542 2.75049 12.3823 2.59075C12.2226 2.43102 12.1328 2.21437 12.1328 1.98847C12.1328 1.76257 12.2226 1.54593 12.3823 1.38619C12.542 1.22646 12.7587 1.13672 12.9846 1.13672H24.3413C24.5672 1.13672 24.7838 1.22646 24.9436 1.38619C25.1033 1.54593 25.193 1.76257 25.193 1.98847C25.193 2.21437 25.1033 2.43102 24.9436 2.59075C24.7838 2.75049 24.5672 2.84023 24.3413 2.84023Z" fill="white"/>
<path d="M19.7986 7.38319H12.9846C12.7587 7.38319 12.542 7.29346 12.3823 7.13372C12.2226 6.97399 12.1328 6.75734 12.1328 6.53144C12.1328 6.30554 12.2226 6.0889 12.3823 5.92916C12.542 5.76943 12.7587 5.67969 12.9846 5.67969H19.7986C20.0245 5.67969 20.2411 5.76943 20.4009 5.92916C20.5606 6.0889 20.6503 6.30554 20.6503 6.53144C20.6503 6.75734 20.5606 6.97399 20.4009 7.13372C20.2411 7.29346 20.0245 7.38319 19.7986 7.38319Z" fill="white"/>
<path d="M24.3413 14.1937H12.9846C12.7587 14.1937 12.542 14.104 12.3823 13.9443C12.2226 13.7845 12.1328 13.5679 12.1328 13.342C12.1328 13.1161 12.2226 12.8994 12.3823 12.7397C12.542 12.58 12.7587 12.4902 12.9846 12.4902H24.3413C24.5672 12.4902 24.7838 12.58 24.9436 12.7397C25.1033 12.8994 25.193 13.1161 25.193 13.342C25.193 13.5679 25.1033 13.7845 24.9436 13.9443C24.7838 14.104 24.5672 14.1937 24.3413 14.1937Z" fill="white"/>
<path d="M19.7986 18.7387H12.9846C12.7587 18.7387 12.542 18.6489 12.3823 18.4892C12.2226 18.3295 12.1328 18.1128 12.1328 17.8869C12.1328 17.661 12.2226 17.4444 12.3823 17.2846C12.542 17.1249 12.7587 17.0352 12.9846 17.0352H19.7986C20.0245 17.0352 20.2411 17.1249 20.4009 17.2846C20.5606 17.4444 20.6503 17.661 20.6503 17.8869C20.6503 18.1128 20.5606 18.3295 20.4009 18.4892C20.2411 18.6489 20.0245 18.7387 19.7986 18.7387Z" fill="white"/>
</svg>
