<svg width="28" height="28" viewBox="0 0 28 28" fill="none" xmlns="http://www.w3.org/2000/svg">
<g clip-path="url(#clip0_311_1526)">
<path fill-rule="evenodd" clip-rule="evenodd" d="M14.0029 26.3595C8.75042 26.3595 8.608 26.3139 8.56243 26.2968C8.44849 26.257 8.36874 26.1487 8.37443 26.0291L9.22896 8.50559C9.23466 8.35747 9.36568 8.24353 9.5138 8.24923C9.66192 8.25492 9.77586 8.38026 9.77016 8.53407L8.93272 25.7898C10.374 25.8297 17.6375 25.8297 19.0788 25.7898L18.2414 8.53407C18.2357 8.38595 18.3496 8.26062 18.4977 8.24923C18.6458 8.24353 18.7712 8.35747 18.7826 8.50559L19.6371 26.0291C19.6428 26.1487 19.5687 26.2627 19.4548 26.2968C19.3978 26.3139 19.2554 26.3595 14.0029 26.3595Z" fill="white" stroke="white"/>
<path fill-rule="evenodd" clip-rule="evenodd" d="M21.7164 18.1669H18.9648C18.8167 18.1669 18.6971 18.0473 18.6971 17.8991C18.6971 17.751 18.8167 17.6314 18.9648 17.6314H21.4316L20.6568 7.06375C20.5656 5.79905 19.4092 4.8021 17.307 4.18684C17.1646 4.14696 17.045 4.11278 16.9368 4.08429C16.857 4.06151 16.7829 4.04442 16.7089 4.02163C14.9372 4.48307 13.0629 4.48307 11.2912 4.02163C11.2171 4.04442 11.1431 4.06151 11.0633 4.08429C10.9551 4.11278 10.8297 4.14696 10.693 4.18684C8.59087 4.80779 7.43441 5.79905 7.34326 7.06375L6.57988 17.6257H9.04662C9.19474 17.6257 9.31437 17.7453 9.31437 17.8935C9.31437 18.0416 9.19474 18.1612 9.04662 18.1612H6.29504C6.22098 18.1612 6.14692 18.1327 6.09565 18.0757C6.04438 18.0188 6.0159 17.9447 6.02159 17.8707L6.80776 7.01817C6.88182 5.96425 7.59392 4.52865 10.5449 3.66273C10.693 3.61715 10.8183 3.58297 10.9323 3.55449C11.0348 3.526 11.126 3.50322 11.2114 3.47473C11.257 3.45764 11.3083 3.45764 11.3595 3.47473C13.0857 3.93618 14.9144 3.93618 16.6462 3.47473C16.6975 3.46334 16.7488 3.46334 16.7943 3.47473C16.8798 3.50322 16.9709 3.526 17.0735 3.55449C17.1874 3.58297 17.3127 3.61715 17.4609 3.66273C20.4118 4.52865 21.1239 5.96995 21.198 7.01817L21.9842 17.8707C21.9899 17.9447 21.9614 18.0188 21.9101 18.0757C21.8645 18.1384 21.7905 18.1669 21.7164 18.1669Z" fill="white" stroke="white"/>
<path fill-rule="evenodd" clip-rule="evenodd" d="M16.7146 4.01044C16.5836 4.01044 16.4696 3.91359 16.4469 3.78257L16.1962 2.22733C14.7378 2.50077 13.2623 2.50077 11.8039 2.22733L11.5533 3.78257C11.5305 3.93068 11.3881 4.02753 11.2456 4.00474C11.0975 3.98196 11.0007 3.84523 11.0235 3.69711L11.314 1.86273C11.3254 1.78867 11.3653 1.726 11.4279 1.68613C11.4906 1.64625 11.5647 1.62916 11.6387 1.64625C13.2054 1.97666 14.8005 1.97666 16.3671 1.64625C16.4412 1.62916 16.5152 1.64625 16.5779 1.68613C16.6405 1.726 16.6804 1.79437 16.6918 1.86273L16.9881 3.69711C17.0108 3.84523 16.914 3.98196 16.7659 4.00474C16.7431 4.01044 16.726 4.01044 16.7146 4.01044Z" fill="white" stroke="white" stroke-width="0.4"/>
<path fill-rule="evenodd" clip-rule="evenodd" d="M14.0029 4.36892C13.8547 4.36892 13.7351 4.24928 13.7351 4.10116V2.16424C13.7351 2.01612 13.8547 1.89648 14.0029 1.89648C14.151 1.89648 14.2706 2.01612 14.2706 2.16424V4.10116C14.2706 4.24928 14.151 4.36892 14.0029 4.36892Z" fill="white" stroke="white" stroke-width="0.4"/>
<path fill-rule="evenodd" clip-rule="evenodd" d="M13.9914 10.2145C13.9401 10.2145 13.8889 10.2031 13.849 10.1746L12.9945 9.63338C12.9147 9.5821 12.8691 9.49665 12.8691 9.4055V4.06756C12.8691 3.91944 12.9888 3.7998 13.1369 3.7998C13.285 3.7998 13.4046 3.91944 13.4046 4.06756V9.25738L13.9914 9.62768L14.5896 9.25738V4.07325C14.5896 3.92514 14.7092 3.8055 14.8573 3.8055C15.0055 3.8055 15.1251 3.92514 15.1251 4.07325V9.4112C15.1251 9.50235 15.0795 9.5935 14.9998 9.63907L14.1338 10.1803C14.094 10.1974 14.0427 10.2145 13.9914 10.2145Z" fill="white" stroke="white" stroke-width="0.4"/>
<path d="M14.0029 5.02574C14.1309 5.02574 14.2351 5.12996 14.2351 5.25799C14.2351 5.38601 14.1309 5.49023 14.0029 5.49023C13.8748 5.49023 13.7706 5.38601 13.7706 5.25799C13.7706 5.12996 13.8748 5.02574 14.0029 5.02574Z" fill="white" stroke="white"/>
<path d="M14.0029 6.08531C14.1309 6.08531 14.2351 6.18953 14.2351 6.31756C14.2351 6.44558 14.1309 6.5498 14.0029 6.5498C13.8748 6.5498 13.7706 6.44558 13.7706 6.31756C13.7706 6.18953 13.8748 6.08531 14.0029 6.08531Z" fill="white" stroke="white"/>
<path d="M14.0029 7.15074C14.1309 7.15074 14.2351 7.25496 14.2351 7.38299C14.2351 7.51101 14.1309 7.61523 14.0029 7.61523C13.8748 7.61523 13.7706 7.51101 13.7706 7.38299C13.7706 7.25496 13.8748 7.15074 14.0029 7.15074Z" fill="white" stroke="white"/>
<path d="M14.0029 8.21031C14.1309 8.21031 14.2351 8.31453 14.2351 8.44256C14.2351 8.57058 14.1309 8.6748 14.0029 8.6748C13.8748 8.6748 13.7706 8.57058 13.7706 8.44256C13.7706 8.31453 13.8748 8.21031 14.0029 8.21031Z" fill="white" stroke="white"/>
<path fill-rule="evenodd" clip-rule="evenodd" d="M9.14127 15.167H7.19206C7.08581 15.167 7 15.167 7 15.167C7 15.167 7.08581 15.167 7.19206 15.167H9.14127C9.24752 15.167 9.33333 15.167 9.33333 15.167C9.33333 15.167 9.24752 15.167 9.14127 15.167Z" fill="white" stroke="white"/>
<path fill-rule="evenodd" clip-rule="evenodd" d="M20.808 15.167H18.8588C18.7526 15.167 18.6667 15.167 18.6667 15.167C18.6667 15.167 18.7526 15.167 18.8588 15.167H20.808C20.9143 15.167 21.0001 15.167 21.0001 15.167C21.0001 15.167 20.9143 15.167 20.808 15.167Z" fill="white" stroke="white"/>
<path fill-rule="evenodd" clip-rule="evenodd" d="M18.7538 24H9.24103C9.10769 24 9 23.7766 9 23.5C9 23.2234 9.10769 23 9.24103 23H18.759C18.8923 23 19 23.2234 19 23.5C19 23.7766 18.8923 24 18.7538 24Z" fill="white" stroke="white" stroke-width="0.8"/>
</g>
<defs>
<clipPath id="clip0_311_1526">
<rect width="28" height="28" fill="white"/>
</clipPath>
</defs>
</svg>
