<svg width="28" height="28" viewBox="0 0 28 28" fill="none" xmlns="http://www.w3.org/2000/svg">
<g clip-path="url(#clip0_311_1568)">
<path d="M27 11.8334C27 11.7543 26.9913 11.6755 26.974 11.5983L25.5657 5.24134C25.304 4.03477 24.6355 2.95484 23.6721 2.18264C22.7088 1.41044 21.5093 0.992919 20.2747 1.00009H7.72534C6.49148 0.993916 5.29296 1.41189 4.33052 2.18401C3.36809 2.95613 2.70018 4.0355 2.43867 5.24134L1.026 11.5983C1.00868 11.6755 0.999957 11.7543 1 11.8334V12.9168C0.999127 13.9715 1.3845 14.99 2.08333 15.78V21.5834C2.08505 23.0195 2.65629 24.3962 3.67174 25.4117C4.68719 26.4271 6.06394 26.9984 7.5 27.0001H20.5C21.9361 26.9984 23.3128 26.4271 24.3283 25.4117C25.3437 24.3962 25.9149 23.0195 25.9167 21.5834V15.78C26.6155 14.99 27.0009 13.9715 27 12.9168V11.8334ZM3.16667 11.9515L4.55333 5.71151C4.71046 4.98811 5.11127 4.34063 5.68868 3.8774C6.26609 3.41417 6.98508 3.16329 7.72534 3.16676H8.58334V6.41676C8.58334 6.70408 8.69747 6.97963 8.90064 7.18279C9.1038 7.38595 9.37935 7.50009 9.66667 7.50009C9.95399 7.50009 10.2295 7.38595 10.4327 7.18279C10.6359 6.97963 10.75 6.70408 10.75 6.41676V3.16676H17.25V6.41676C17.25 6.70408 17.3641 6.97963 17.5673 7.18279C17.7705 7.38595 18.046 7.50009 18.3333 7.50009C18.6207 7.50009 18.8962 7.38595 19.0994 7.18279C19.3025 6.97963 19.4167 6.70408 19.4167 6.41676V3.16676H20.2747C21.0149 3.16329 21.7339 3.41417 22.3113 3.8774C22.8887 4.34063 23.2895 4.98811 23.4467 5.71151L24.8333 11.9515V12.9168C24.8333 13.4914 24.6051 14.0425 24.1987 14.4488C23.7924 14.8552 23.2413 15.0834 22.6667 15.0834H21.5833C21.0087 15.0834 20.4576 14.8552 20.0513 14.4488C19.6449 14.0425 19.4167 13.4914 19.4167 12.9168C19.4167 12.6294 19.3025 12.3539 19.0994 12.1507C18.8962 11.9476 18.6207 11.8334 18.3333 11.8334C18.046 11.8334 17.7705 11.9476 17.5673 12.1507C17.3641 12.3539 17.25 12.6294 17.25 12.9168C17.25 13.4914 17.0217 14.0425 16.6154 14.4488C16.2091 14.8552 15.658 15.0834 15.0833 15.0834H12.9167C12.342 15.0834 11.7909 14.8552 11.3846 14.4488C10.9783 14.0425 10.75 13.4914 10.75 12.9168C10.75 12.6294 10.6359 12.3539 10.4327 12.1507C10.2295 11.9476 9.95399 11.8334 9.66667 11.8334C9.37935 11.8334 9.1038 11.9476 8.90064 12.1507C8.69747 12.3539 8.58334 12.6294 8.58334 12.9168C8.58334 13.4914 8.35506 14.0425 7.94873 14.4488C7.5424 14.8552 6.9913 15.0834 6.41667 15.0834H5.33334C4.7587 15.0834 4.2076 14.8552 3.80127 14.4488C3.39494 14.0425 3.16667 13.4914 3.16667 12.9168V11.9515ZM20.5 24.8334H7.5C6.63805 24.8334 5.8114 24.491 5.2019 23.8815C4.59241 23.272 4.25 22.4454 4.25 21.5834V17.1125C4.60382 17.2041 4.96785 17.2504 5.33334 17.2501H6.41667C7.0318 17.2504 7.63992 17.1194 8.20038 16.8659C8.76084 16.6124 9.26074 16.2422 9.66667 15.78C10.0726 16.2422 10.5725 16.6124 11.133 16.8659C11.6934 17.1194 12.3015 17.2504 12.9167 17.2501H15.0833C15.6985 17.2504 16.3066 17.1194 16.867 16.8659C17.4275 16.6124 17.9274 16.2422 18.3333 15.78C18.7393 16.2422 19.2392 16.6124 19.7996 16.8659C20.3601 17.1194 20.9682 17.2504 21.5833 17.2501H22.6667C23.0322 17.2504 23.3962 17.2041 23.75 17.1125V21.5834C23.75 22.4454 23.4076 23.272 22.7981 23.8815C22.1886 24.491 21.362 24.8334 20.5 24.8334Z" fill="white"/>
</g>
<defs>
<clipPath id="clip0_311_1568">
<rect width="26" height="26" fill="white" transform="translate(1 1)"/>
</clipPath>
</defs>
</svg>
