<svg width="55" height="55" viewBox="0 0 55 55" fill="none" xmlns="http://www.w3.org/2000/svg">
<g clip-path="url(#clip0_482_2)">
<path fill-rule="evenodd" clip-rule="evenodd" d="M29.0454 32.8412L31.0836 15.474C31.3318 13.3597 29.6837 11.502 27.5601 11.502C25.4364 11.502 23.7883 13.3597 24.0365 15.474L26.0748 32.8412C26.1634 33.5963 26.8017 34.1653 27.5601 34.1653C28.3184 34.1653 28.9568 33.5963 29.0454 32.8412ZM27.5601 43.4972C29.0291 43.4972 30.22 42.3035 30.22 40.831C30.22 39.3584 29.0291 38.1647 27.5601 38.1647C26.091 38.1647 24.9002 39.3584 24.9002 40.831C24.9002 42.3035 26.091 43.4972 27.5601 43.4972Z" fill="#E83647"/>
<path d="M27.5 53C41.5833 53 53 41.5833 53 27.5C53 13.4167 41.5833 2 27.5 2C13.4167 2 2 13.4167 2 27.5C2 41.5833 13.4167 53 27.5 53Z" stroke="#E83647" stroke-width="4"/>
</g>
<defs>
<clipPath id="clip0_482_2">
<rect width="55" height="55" fill="white"/>
</clipPath>
</defs>
</svg>
