<svg width="174" height="174" viewBox="0 0 174 174" fill="none" xmlns="http://www.w3.org/2000/svg">
<g clip-path="url(#clip0_488_2)">
<path d="M87 174C135.049 174 174 135.049 174 87C174 38.9512 135.049 0 87 0C38.9512 0 0 38.9512 0 87C0 135.049 38.9512 174 87 174Z" fill="#E83647" fill-opacity="0.08"/>
<path d="M71.2677 67.7322C70.2914 66.7559 68.7085 66.7559 67.7322 67.7322C66.7559 68.7085 66.7559 70.2914 67.7322 71.2677L83.4646 87L67.7322 102.732C66.7559 103.709 66.7559 105.291 67.7322 106.268C68.7085 107.244 70.2914 107.244 71.2677 106.268L87 90.5355L102.732 106.267C103.708 107.244 105.291 107.244 106.267 106.267C107.244 105.291 107.244 103.708 106.267 102.732L90.5355 87L106.267 71.2681C107.244 70.2918 107.244 68.7089 106.267 67.7326C105.291 66.7563 103.708 66.7563 102.732 67.7326L87 83.4646L71.2677 67.7322Z" fill="#E83647"/>
</g>
<defs>
<clipPath id="clip0_488_2">
<rect width="174" height="174" fill="white"/>
</clipPath>
</defs>
</svg>
