<svg width="16" height="15" viewBox="0 0 16 15" fill="none" xmlns="http://www.w3.org/2000/svg">
<path d="M1.33594 2.05208C1.33594 1.3157 1.93289 0.71875 2.66927 0.71875H13.3359C14.0723 0.71875 14.6693 1.3157 14.6693 2.05208V2.59709C14.6693 3.10367 14.477 3.59139 14.1314 3.96173L10.3612 8.00121C10.1308 8.2481 10.0026 8.57324 10.0026 8.91097V11.6401C10.0026 11.8926 9.85994 12.1234 9.63408 12.2363L6.96741 13.5697C6.52415 13.7913 6.0026 13.469 6.0026 12.9734V8.91097C6.0026 8.57324 5.87445 8.2481 5.64401 8.00121L1.87383 3.96173C1.52817 3.59138 1.33594 3.10367 1.33594 2.59709V2.05208Z" stroke="black" stroke-width="1.3"/>
</svg>
