<svg width="36" height="37" viewBox="0 0 36 37" fill="none" xmlns="http://www.w3.org/2000/svg">
<ellipse cx="18" cy="18.0705" rx="18" ry="18.0705" fill="#FFF3F4"/>
<path d="M18 16.6836C17.4 16.6836 17 16.9693 17 17.3979V20.9693C17 21.3979 17.4 21.6836 18 21.6836C18.6 21.6836 19 21.3979 19 20.9693V17.3979C19 16.9693 18.6 16.6836 18 16.6836Z" fill="#E83647"/>
<path d="M18 15.6836C18.5523 15.6836 19 15.2359 19 14.6836C19 14.1313 18.5523 13.6836 18 13.6836C17.4477 13.6836 17 14.1313 17 14.6836C17 15.2359 17.4477 15.6836 18 15.6836Z" fill="#E83647"/>
<path d="M18 9.68359C13.6 9.68359 10 13.2836 10 17.6836C10 22.0836 13.6 25.6836 18 25.6836C22.4 25.6836 26 22.0836 26 17.6836C26 13.2836 22.4 9.68359 18 9.68359ZM18 24.0836C14.48 24.0836 11.6 21.2036 11.6 17.6836C11.6 14.1636 14.48 11.2836 18 11.2836C21.52 11.2836 24.4 14.1636 24.4 17.6836C24.4 21.2036 21.52 24.0836 18 24.0836Z" fill="#E83647"/>
</svg>
