<svg width="32" height="32" viewBox="0 0 32 32" fill="none" xmlns="http://www.w3.org/2000/svg">
<path d="M30.297 8.40228L16.297 1.40228C16.1094 1.30861 15.888 1.30861 15.7007 1.40228L1.7007 8.40228C1.4747 8.51528 1.33203 8.74595 1.33203 8.99861V22.9986C1.33203 23.2513 1.4747 23.4819 1.70036 23.5949L15.7004 30.5949C15.7944 30.6419 15.8964 30.6653 15.9987 30.6653C16.101 30.6653 16.203 30.6419 16.297 30.5949L30.297 23.5949C30.5227 23.4819 30.6654 23.2513 30.6654 22.9986V8.99861C30.6654 8.74595 30.5227 8.51528 30.297 8.40228ZM15.9987 2.74395L28.508 8.99861L25.832 10.3366L13.323 4.08195L15.9987 2.74395ZM20.4987 13.0033L7.98936 6.74861L11.832 4.82728L24.3414 11.0819L20.4987 13.0033ZM20.9987 14.2439L24.9987 12.2439V17.2029L23.7194 16.2893C23.5744 16.1856 23.393 16.1446 23.2174 16.1749C23.0417 16.2059 22.8854 16.3056 22.7837 16.4523L20.9987 19.0313V14.2439ZM6.4987 7.49395L19.0077 13.7486L15.9987 15.2533L3.48936 8.99861L6.4987 7.49395ZM2.66536 10.0773L15.332 16.4106V28.9196L2.66536 22.5863V10.0773ZM16.6654 28.9199V16.4106L19.6654 14.9106V21.1653C19.6654 21.4569 19.8547 21.7146 20.133 21.8016C20.199 21.8223 20.2657 21.8319 20.332 21.8319C20.5467 21.8319 20.7534 21.7279 20.8804 21.5449L23.4954 17.7679L25.2784 19.0413C25.4817 19.1863 25.749 19.2059 25.9707 19.0913C26.1924 18.9773 26.332 18.7483 26.332 18.4986V11.5773L29.332 10.0773V22.5863L16.6654 28.9199Z" fill="#E83647"/>
</svg>
