<svg width="18" height="18" viewBox="0 0 18 18" fill="none" xmlns="http://www.w3.org/2000/svg">
<g clip-path="url(#clip0_4934_12159)">
<path d="M12.1244 6.7875L9.88062 9L12.1244 11.2125C12.1868 11.271 12.2366 11.3416 12.2706 11.4201C12.3047 11.4986 12.3222 11.5832 12.3222 11.6688C12.3222 11.7543 12.3047 11.8389 12.2706 11.9174C12.2366 11.9959 12.1868 12.0665 12.1244 12.125C12.066 12.1829 11.9967 12.2288 11.9206 12.2599C11.8444 12.291 11.7629 12.3067 11.6806 12.3063C11.5167 12.3056 11.3595 12.2405 11.2431 12.125L8.99937 9.88126L6.78687 12.125C6.67046 12.2405 6.51333 12.3056 6.34937 12.3063C6.26711 12.3067 6.18558 12.291 6.10943 12.2599C6.03328 12.2288 5.96402 12.1829 5.90562 12.125C5.78921 12.0079 5.72387 11.8495 5.72387 11.6844C5.72387 11.5193 5.78921 11.3609 5.90562 11.2438L8.11812 9L5.90562 6.7875C5.80323 6.66794 5.74972 6.51414 5.7558 6.35685C5.76187 6.19955 5.82708 6.05034 5.93839 5.93903C6.0497 5.82772 6.19891 5.76251 6.35621 5.75643C6.51351 5.75036 6.66731 5.80386 6.78687 5.90625L8.99937 8.11875L11.2119 5.90625C11.2697 5.84634 11.3388 5.79841 11.4152 5.7652C11.4916 5.73199 11.5738 5.71414 11.6571 5.71269C11.7404 5.71124 11.8231 5.72621 11.9006 5.75674C11.9781 5.78727 12.0488 5.83277 12.1087 5.89063C12.1687 5.94849 12.2166 6.01759 12.2498 6.09398C12.283 6.17037 12.3009 6.25255 12.3023 6.33583C12.3038 6.41911 12.2888 6.50187 12.2583 6.57936C12.2277 6.65686 12.1822 6.72759 12.1244 6.7875ZM15.1869 15.1875C13.9631 16.4111 12.404 17.2444 10.7067 17.5819C9.0094 17.9195 7.25012 17.7462 5.65131 17.0839C4.05251 16.4216 2.686 15.3001 1.72458 13.8612C0.763156 12.4222 0.25 10.7306 0.25 9C0.25 7.26946 0.763156 5.57777 1.72458 4.13886C2.686 2.69995 4.05251 1.57844 5.65131 0.916144C7.25012 0.25385 9.0094 0.0805191 10.7067 0.418067C12.404 0.755616 13.9631 1.58888 15.1869 2.8125C15.9995 3.62503 16.6441 4.58966 17.0839 5.65132C17.5236 6.71298 17.75 7.85086 17.75 9C17.75 10.1491 17.5236 11.287 17.0839 12.3487C16.6441 13.4103 15.9995 14.375 15.1869 15.1875ZM14.3056 3.69375C13.2557 2.64747 11.9193 1.93575 10.4651 1.64847C9.01099 1.36119 7.50432 1.51123 6.13539 2.07965C4.76647 2.64807 3.59666 3.60938 2.7737 4.84218C1.95074 6.07499 1.51153 7.524 1.51153 9.00626C1.51153 10.4885 1.95074 11.9375 2.7737 13.1703C3.59666 14.4031 4.76647 15.3644 6.13539 15.9329C7.50432 16.5013 9.01099 16.6513 10.4651 16.364C11.9193 16.0768 13.2557 15.365 14.3056 14.3188C15.0048 13.622 15.5596 12.794 15.9381 11.8824C16.3167 10.9708 16.5115 9.99336 16.5115 9.00626C16.5115 8.01915 16.3167 7.04175 15.9381 6.13012C15.5596 5.21848 15.0048 4.39053 14.3056 3.69375Z" fill="black"/>
</g>
<defs>
<clipPath id="clip0_4934_12159">
<rect width="18" height="18" fill="white"/>
</clipPath>
</defs>
</svg>
