<svg width="28" height="28" viewBox="0 0 28 28" fill="none" xmlns="http://www.w3.org/2000/svg">
<g clip-path="url(#clip0_4970_3276)">
<path fill-rule="evenodd" clip-rule="evenodd" d="M14 4.375C11.4473 4.375 8.99913 5.38906 7.1941 7.1941C5.38906 8.99914 4.375 11.4473 4.375 14V15.4583H7C7.8509 15.4583 8.66696 15.7964 9.26863 16.398C9.87031 16.9997 10.2083 17.8158 10.2083 18.6667V22.1667C10.2083 23.0176 9.87031 23.8336 9.26863 24.4353C8.66696 25.037 7.8509 25.375 7 25.375H5.83333C4.98243 25.375 4.16638 25.037 3.5647 24.4353C2.96302 23.8336 2.625 23.0176 2.625 22.1667V14C2.625 10.9832 3.82343 8.08989 5.95666 5.95666C8.08989 3.82343 10.9832 2.625 14 2.625C17.0168 2.625 19.9101 3.82343 22.0433 5.95666C24.1766 8.08989 25.375 10.9832 25.375 14V22.1667C25.375 23.0176 25.037 23.8336 24.4353 24.4353C23.8336 25.037 23.0176 25.375 22.1667 25.375H21C20.1491 25.375 19.333 25.037 18.7314 24.4353C18.1297 23.8336 17.7917 23.0176 17.7917 22.1667V18.6667C17.7917 17.8158 18.1297 16.9997 18.7314 16.398C19.333 15.7964 20.1491 15.4583 21 15.4583H23.625V14C23.625 11.4473 22.6109 8.99914 20.8059 7.1941C19.0009 5.38906 16.5527 4.375 14 4.375ZM23.625 17.2083H21C20.6132 17.2083 20.2423 17.362 19.9688 17.6355C19.6953 17.909 19.5417 18.2799 19.5417 18.6667V22.1667C19.5417 22.5534 19.6953 22.9244 19.9688 23.1979C20.2423 23.4714 20.6132 23.625 21 23.625H22.1667C22.5534 23.625 22.9244 23.4714 23.1979 23.1979C23.4714 22.9244 23.625 22.5534 23.625 22.1667V17.2083ZM4.375 22.1667C4.375 22.5534 4.52865 22.9244 4.80214 23.1979C5.07563 23.4714 5.44656 23.625 5.83333 23.625H7C7.38677 23.625 7.75771 23.4714 8.0312 23.1979C8.30469 22.9244 8.45833 22.5534 8.45833 22.1667V18.6667C8.45833 18.2799 8.30469 17.909 8.0312 17.6355C7.75771 17.362 7.38677 17.2083 7 17.2083H4.375V22.1667Z" fill="white" stroke="white" stroke-linecap="round" stroke-linejoin="round"/>
</g>
<defs>
<clipPath id="clip0_4970_3276">
<rect width="28" height="28" fill="white"/>
</clipPath>
</defs>
</svg>
