<svg width="16" height="16" viewBox="0 0 16 16" fill="none" xmlns="http://www.w3.org/2000/svg">
<path d="M13.6633 5.32587C13.45 5.11715 13.1615 5 12.8607 5C12.56 5 12.2715 5.11715 12.0582 5.32587L7.97154 9.29283L3.94179 5.32587C3.72851 5.11715 3.43999 5 3.13926 5C2.83852 5 2.55 5.11715 2.33672 5.32587C2.23003 5.43004 2.14534 5.55398 2.08755 5.69054C2.02975 5.8271 2 5.97357 2 6.1215C2 6.26943 2.02975 6.4159 2.08755 6.55246C2.14534 6.68902 2.23003 6.81296 2.33672 6.91713L7.16331 11.6685C7.26914 11.7736 7.39504 11.8569 7.53376 11.9138C7.67248 11.9707 7.82127 12 7.97154 12C8.12182 12 8.2706 11.9707 8.40932 11.9138C8.54804 11.8569 8.67394 11.7736 8.77977 11.6685L13.6633 6.91713C13.77 6.81296 13.8547 6.68902 13.9125 6.55246C13.9702 6.4159 14 6.26943 14 6.1215C14 5.97357 13.9702 5.8271 13.9125 5.69054C13.8547 5.55398 13.77 5.43004 13.6633 5.32587Z" fill="#E83647"/>
</svg>
