<svg width="16" height="22" viewBox="0 0 16 22" fill="none" xmlns="http://www.w3.org/2000/svg">
<path d="M14.8885 7.95224L14.5525 18.3522C14.5239 19.2429 14.1569 20.0871 13.5295 20.7057C12.9021 21.3243 12.0636 21.6685 11.192 21.6653H4.80714C3.93613 21.6685 3.09814 21.3248 2.47082 20.7069C1.8435 20.0891 1.47616 19.2457 1.44668 18.3556L1.11063 7.95224C1.10328 7.72442 1.18474 7.50294 1.33709 7.33653C1.48945 7.17012 1.70021 7.07241 1.92302 7.06489C2.14584 7.05738 2.36244 7.14067 2.5252 7.29645C2.68795 7.45222 2.78351 7.66773 2.79086 7.89555L3.12691 18.2981C3.14364 18.7421 3.32803 19.1623 3.64134 19.4703C3.95465 19.7784 4.3725 19.9502 4.80714 19.9499H11.192C11.6272 19.9502 12.0456 19.7778 12.359 19.4691C12.6724 19.1603 12.8564 18.7393 12.8722 18.2946L13.2083 7.89555C13.2156 7.66773 13.3112 7.45222 13.474 7.29645C13.6367 7.14067 13.8533 7.05738 14.0761 7.06489C14.2989 7.07241 14.5097 7.17012 14.6621 7.33653C14.8144 7.50294 14.8959 7.72442 14.8885 7.95224ZM16 4.49132C16 4.71915 15.9115 4.93764 15.7539 5.09873C15.5964 5.25983 15.3827 5.35033 15.1599 5.35033H0.840115C0.617303 5.35033 0.403616 5.25983 0.246064 5.09873C0.0885117 4.93764 0 4.71915 0 4.49132C0 4.2635 0.0885117 4.04501 0.246064 3.88392C0.403616 3.72283 0.617303 3.63232 0.840115 3.63232H3.44447C3.71066 3.63306 3.9676 3.5325 4.16528 3.35022C4.36296 3.16795 4.48724 2.91699 4.51394 2.64619C4.57594 2.01095 4.86701 1.42205 5.33044 0.994251C5.79388 0.566448 6.39648 0.330379 7.02085 0.33204H8.97831C9.60268 0.330379 10.2053 0.566448 10.6687 0.994251C11.1322 1.42205 11.4232 2.01095 11.4852 2.64619C11.5119 2.91699 11.6362 3.16795 11.8339 3.35022C12.0316 3.5325 12.2885 3.63306 12.5547 3.63232H15.159C15.3819 3.63232 15.5955 3.72283 15.7531 3.88392C15.9106 4.04501 15.9992 4.2635 15.9992 4.49132H16ZM5.97238 3.63232H10.0285C9.91806 3.3744 9.84586 3.1011 9.81423 2.82143C9.79342 2.60969 9.69648 2.41339 9.5422 2.27056C9.38792 2.12773 9.18728 2.04854 8.97915 2.04833H7.02169C6.81356 2.04854 6.61292 2.12773 6.45864 2.27056C6.30436 2.41339 6.20742 2.60969 6.18661 2.82143C6.15471 3.10115 6.08223 3.37445 5.97154 3.63232H5.97238ZM6.81838 16.6471V9.33266C6.81838 9.10484 6.72987 8.88635 6.57231 8.72525C6.41476 8.56416 6.20107 8.47366 5.97826 8.47366C5.75545 8.47366 5.54176 8.56416 5.38421 8.72525C5.22666 8.88635 5.13815 9.10484 5.13815 9.33266V16.6505C5.13815 16.8783 5.22666 17.0968 5.38421 17.2579C5.54176 17.419 5.75545 17.5095 5.97826 17.5095C6.20107 17.5095 6.41476 17.419 6.57231 17.2579C6.72987 17.0968 6.81838 16.8783 6.81838 16.6505V16.6471ZM10.8627 16.6471V9.33266C10.8627 9.10484 10.7742 8.88635 10.6166 8.72525C10.4591 8.56416 10.2454 8.47366 10.0226 8.47366C9.79977 8.47366 9.58608 8.56416 9.42853 8.72525C9.27097 8.88635 9.18246 9.10484 9.18246 9.33266V16.6505C9.18246 16.8783 9.27097 17.0968 9.42853 17.2579C9.58608 17.419 9.79977 17.5095 10.0226 17.5095C10.2454 17.5095 10.4591 17.419 10.6166 17.2579C10.7742 17.0968 10.8627 16.8783 10.8627 16.6505V16.6471Z" fill="#E83647"/>
</svg>
