<svg width="13" height="12" viewBox="0 0 13 12" fill="none" xmlns="http://www.w3.org/2000/svg">
<path d="M6.61056 4.80078C6.23954 4.80078 5.99219 5.04078 5.99219 5.40078V8.40078C5.99219 8.76078 6.23954 9.00078 6.61056 9.00078C6.98159 9.00078 7.22894 8.76078 7.22894 8.40078V5.40078C7.22894 5.04078 6.98159 4.80078 6.61056 4.80078Z" fill="#E83647"/>
<path d="M6.61056 4.2C6.95208 4.2 7.22894 3.93137 7.22894 3.6C7.22894 3.26863 6.95208 3 6.61056 3C6.26904 3 5.99219 3.26863 5.99219 3.6C5.99219 3.93137 6.26904 4.2 6.61056 4.2Z" fill="#E83647"/>
<path d="M6.61344 0C3.21238 0 0.429688 2.7 0.429688 6C0.429688 9.3 3.21238 12 6.61344 12C10.0145 12 12.7972 9.3 12.7972 6C12.7972 2.7 10.0145 0 6.61344 0ZM6.61344 10.8C3.89259 10.8 1.66644 8.64 1.66644 6C1.66644 3.36 3.89259 1.2 6.61344 1.2C9.33429 1.2 11.5604 3.36 11.5604 6C11.5604 8.64 9.33429 10.8 6.61344 10.8Z" fill="#E83647"/>
</svg>
