<svg width="28" height="28" viewBox="0 0 28 28" fill="none" xmlns="http://www.w3.org/2000/svg">
<g clip-path="url(#clip0_4970_3269)">
<path fill-rule="evenodd" clip-rule="evenodd" d="M4.73267 2.39868C5.33435 1.797 6.1504 1.45898 7.0013 1.45898H16.3346C16.5667 1.45898 16.7893 1.55117 16.9534 1.71527L23.9534 8.71527C24.1174 8.87936 24.2096 9.10192 24.2096 9.33398V23.334C24.2096 24.1849 23.8716 25.0009 23.2699 25.6026C22.6683 26.2043 21.8522 26.5423 21.0013 26.5423H7.0013C6.1504 26.5423 5.33435 26.2043 4.73267 25.6026C4.13099 25.0009 3.79297 24.1849 3.79297 23.334V4.66732C3.79297 3.81642 4.13099 3.00036 4.73267 2.39868ZM7.0013 3.20898C6.61453 3.20898 6.24359 3.36263 5.9701 3.63612C5.69661 3.90961 5.54297 4.28054 5.54297 4.66732V23.334C5.54297 23.7208 5.69661 24.0917 5.9701 24.3652C6.2436 24.6387 6.61453 24.7923 7.0013 24.7923H21.0013C21.3881 24.7923 21.759 24.6387 22.0325 24.3652C22.306 24.0917 22.4596 23.7208 22.4596 23.334V10.209H16.3346C15.8514 10.209 15.4596 9.81723 15.4596 9.33398V3.20898H7.0013ZM17.2096 4.44642L21.2222 8.45898H17.2096V4.44642ZM8.45964 10.5007C8.45964 10.0174 8.85139 9.62565 9.33464 9.62565H11.668C12.1512 9.62565 12.543 10.0174 12.543 10.5007C12.543 10.9839 12.1512 11.3757 11.668 11.3757H9.33464C8.85139 11.3757 8.45964 10.9839 8.45964 10.5007ZM8.45964 15.1673C8.45964 14.6841 8.85139 14.2923 9.33464 14.2923H18.668C19.1512 14.2923 19.543 14.6841 19.543 15.1673C19.543 15.6506 19.1512 16.0423 18.668 16.0423H9.33464C8.85139 16.0423 8.45964 15.6506 8.45964 15.1673ZM8.45964 19.834C8.45964 19.3507 8.85139 18.959 9.33464 18.959H18.668C19.1512 18.959 19.543 19.3507 19.543 19.834C19.543 20.3172 19.1512 20.709 18.668 20.709H9.33464C8.85139 20.709 8.45964 20.3172 8.45964 19.834Z" fill="white" stroke="white" stroke-width="0.8" stroke-linecap="round" stroke-linejoin="round"/>
</g>
<defs>
<clipPath id="clip0_4970_3269">
<rect width="28" height="28" fill="white"/>
</clipPath>
</defs>
</svg>
