<svg width="20" height="20" viewBox="0 0 20 20" fill="none" xmlns="http://www.w3.org/2000/svg">
<path fill-rule="evenodd" clip-rule="evenodd" d="M2.3361 4.70348L10.0013 10.0691L17.6665 4.70348C17.538 4.27386 17.1371 3.95703 16.668 3.95703H3.33464C2.86551 3.95703 2.46465 4.27386 2.3361 4.70348ZM17.7096 6.19911L10.3597 11.3441C10.1445 11.4947 9.85809 11.4947 9.64289 11.3441L2.29297 6.19911V14.9987C2.29297 15.5702 2.76315 16.0404 3.33464 16.0404H16.668C17.2395 16.0404 17.7096 15.5702 17.7096 14.9987V6.19911ZM1.04297 4.9987C1.04297 3.73685 2.07279 2.70703 3.33464 2.70703H16.668C17.9298 2.70703 18.9596 3.73685 18.9596 4.9987V14.9987C18.9596 16.2605 17.9298 17.2904 16.668 17.2904H3.33464C2.07279 17.2904 1.04297 16.2605 1.04297 14.9987V4.9987Z" fill="#222222"/>
</svg>
