<svg width="24" height="24" viewBox="0 0 24 24" fill="none" xmlns="http://www.w3.org/2000/svg">
<path d="M13.8612 0H10.1189C9.5987 0 9.17969 0.419021 9.17969 0.93919C9.17969 1.45936 9.5987 1.87839 10.1189 1.87839H13.8612C14.3814 1.87839 14.8004 1.45936 14.8004 0.93919C14.8004 0.419021 14.3814 0 13.8612 0Z" fill="white"/>
<path d="M19.4955 3.74219H4.49726C2.95121 3.74219 1.67969 4.99926 1.67969 6.55976C1.67969 8.12027 2.93676 9.37734 4.49726 9.37734H19.4955C21.0415 9.37734 22.313 8.12027 22.313 6.55976C22.313 4.99926 21.056 3.74219 19.4955 3.74219ZM19.4955 7.48451H4.49726C3.97709 7.48451 3.55808 7.06549 3.55808 6.54532C3.55808 6.02515 3.97709 5.60612 4.49726 5.60612H19.4955C20.0156 5.60612 20.4347 6.02515 20.4347 6.54532C20.4347 7.06549 20.0156 7.48451 19.4955 7.48451Z" fill="white"/>
<path d="M17.6169 11.2422C17.0968 11.2422 16.6778 11.6612 16.6778 12.1814V21.1832C16.6778 21.7034 16.2587 22.1224 15.7386 22.1224H8.23945C7.71928 22.1224 7.30027 21.7034 7.30027 21.1832V12.1814C7.30027 11.6612 6.88125 11.2422 6.36108 11.2422C5.84091 11.2422 5.42188 11.6612 5.42188 12.1814V21.1832C5.42188 22.7292 6.67894 24.0008 8.23945 24.0008H15.7386C17.2846 24.0008 18.5561 22.7437 18.5561 21.1832V12.1814C18.5561 11.6612 18.1371 11.2422 17.6169 11.2422Z" fill="white"/>
<path d="M11.0581 19.3048V12.1814C11.0581 11.6612 10.639 11.2422 10.1189 11.2422C9.5987 11.2422 9.17969 11.6612 9.17969 12.1814V19.3048C9.17969 19.825 9.5987 20.244 10.1189 20.244C10.639 20.244 11.0581 19.825 11.0581 19.3048Z" fill="white"/>
<path d="M14.8003 19.3048V12.1814C14.8003 11.6612 14.3812 11.2422 13.8611 11.2422C13.3409 11.2422 12.9219 11.6612 12.9219 12.1814V19.3048C12.9219 19.825 13.3409 20.244 13.8611 20.244C14.3812 20.244 14.8003 19.825 14.8003 19.3048Z" fill="white"/>
</svg>
