<svg width="16" height="14" viewBox="0 0 16 14" fill="none" xmlns="http://www.w3.org/2000/svg">
<path fill-rule="evenodd" clip-rule="evenodd" d="M-1.14742e-07 11.375C-9.36191e-08 11.8582 0.397973 12.25 0.888889 12.25L1.92952 12.25C2.29559 13.2695 3.28336 14 4.44444 14C5.60553 14 6.59333 13.2695 6.95938 12.25L15.1111 12.25C15.602 12.25 16 11.8582 16 11.375C16 10.8918 15.602 10.5 15.1111 10.5L6.95938 10.5C6.59333 9.48046 5.60553 8.75 4.44444 8.75C3.28336 8.75 2.29559 9.48046 1.92952 10.5L0.888889 10.5C0.397973 10.5 -1.35866e-07 10.8918 -1.14742e-07 11.375ZM4.44444 10.5C4.93537 10.5 5.33333 10.8918 5.33333 11.375C5.33333 11.8582 4.93537 12.25 4.44444 12.25C3.95353 12.25 3.55556 11.8582 3.55556 11.375C3.55556 10.8918 3.95353 10.5 4.44444 10.5ZM-4.97217e-07 2.625C-4.76093e-07 3.10826 0.397973 3.5 0.888888 3.5L8.15173 3.5C8.51778 4.51955 9.5056 5.25 10.6667 5.25C11.8277 5.25 12.8156 4.51955 13.1816 3.5L15.1111 3.5C15.602 3.5 16 3.10826 16 2.625C16 2.14174 15.602 1.75 15.1111 1.75L13.1816 1.75C12.8156 0.73045 11.8277 4.36668e-07 10.6667 4.87419e-07C9.5056 5.38171e-07 8.51778 0.73045 8.15173 1.75L0.888888 1.75C0.397973 1.75 -5.18341e-07 2.14174 -4.97217e-07 2.625ZM10.6667 1.75C11.1576 1.75 11.5556 2.14174 11.5556 2.625C11.5556 3.10826 11.1576 3.5 10.6667 3.5C10.1757 3.5 9.77778 3.10826 9.77778 2.625C9.77778 2.14174 10.1757 1.75 10.6667 1.75Z" fill="#E83647"/>
</svg>
