<svg width="8" height="14" viewBox="0 0 8 14" fill="none" xmlns="http://www.w3.org/2000/svg">
<path fill-rule="evenodd" clip-rule="evenodd" d="M7.73345 0.204739C7.43891 -0.0682468 6.96255 -0.0682468 6.66874 0.204739L0.441199 5.98936C0.301798 6.11686 0.190793 6.27007 0.114944 6.44016C0.0390947 6.61025 -2.13264e-07 6.79371 -2.13716e-07 6.97881C-2.14167e-07 7.1639 0.0390947 7.34702 0.114944 7.51711C0.190793 7.6872 0.301798 7.84041 0.441199 7.96792L6.71382 13.7953C6.85618 13.9255 7.0447 13.9987 7.2411 14C7.4375 14.0013 7.62706 13.9304 7.77127 13.8021C7.8427 13.7387 7.89986 13.662 7.9392 13.5765C7.97854 13.491 7.99923 13.3987 7.99998 13.3051C8.00073 13.2116 7.98153 13.1192 7.94356 13.0331C7.9056 12.947 7.84968 12.8692 7.77927 12.8048L2.03827 7.47302C1.96852 7.40926 1.91297 7.33252 1.87501 7.24745C1.83705 7.16237 1.81746 7.07106 1.81746 6.97847C1.81746 6.88588 1.83705 6.79422 1.87501 6.70914C1.91297 6.62407 1.96852 6.54733 2.03827 6.48357L7.73345 1.19385C7.80319 1.13015 7.85871 1.05329 7.89666 0.968275C7.93461 0.883256 7.95419 0.791827 7.95419 0.699294C7.95419 0.606761 7.93461 0.515332 7.89666 0.430314C7.85871 0.345295 7.80319 0.268436 7.73345 0.204739" fill="black"/>
</svg>
